<svg preserveAspectRatio="none" width="100%" height="100%" overflow="visible" style="display: block;" viewBox="0 0 22.2969 22.2969" fill="none" xmlns="http://www.w3.org/2000/svg">
<g id="Text">
<path d="M0 11.1484C0 4.99133 4.99133 0 11.1484 0V0C17.3055 0 22.2969 4.99133 22.2969 11.1484V11.1484C22.2969 17.3055 17.3055 22.2969 11.1484 22.2969V22.2969C4.99133 22.2969 0 17.3055 0 11.1484V11.1484Z" fill="var(--fill-0, white)"/>
<path id="Vector 2" d="M11.1445 16.3984L14.0313 11.3984L8.25778 11.3984L11.1445 16.3984ZM11.6445 6.39844C11.6445 6.1223 11.4207 5.89844 11.1445 5.89844C10.8684 5.89844 10.6445 6.1223 10.6445 6.39844L11.1445 6.39844L11.6445 6.39844ZM11.1445 11.8984L11.6445 11.8984L11.6445 6.39844L11.1445 6.39844L10.6445 6.39844L10.6445 11.8984L11.1445 11.8984Z" fill="var(--stroke-0, black)"/>
</g>
</svg>
